# xmcd CD database file
#
# Track frame offsets:
#	150
#	15589
#	31550
#	46634
#	70441
#	88793
#	97583
#	119284
#	132940
#	153298
#	172676
#	193889
#	207752
#	236428
#
# Disc length: 3425 seconds
#
# Revision: 0
# Processed by: cddbd v1.4PL0 Copyright (c) Steve Scherf et al.
# Submitted via: Feurio! 1.64 - http://www.feurio.com
#
DISCID=a00d5f0e
DTITLE=Blues Package - Showtime
DYEAR=2002
DGENRE=Blues
TTITLE0=Baby, please don't lie to me
TTITLE1=Couldn't do nothing
TTITLE2=Who's been sleeping in my Bed
TTITLE3=Sensitive Kind
TTITLE4=The Weight
TTITLE5=Stop your moving
TTITLE6=Neighbour, Neighbour
TTITLE7=Get Rhythm
TTITLE8=Golden Wings
TTITLE9=Tiny Coffin
TTITLE10=Mercury Blues
TTITLE11=Tell me why
TTITLE12=Have you ever loved a Woman
TTITLE13=I can't hold out
EXTD=Klatsch
EXTT0=
EXTT1=
EXTT2=
EXTT3=
EXTT4=
EXTT5=
EXTT6=
EXTT7=
EXTT8=
EXTT9=
EXTT10=
EXTT11=
EXTT12=
EXTT13=
PLAYORDER=
